<?xml version="1.0" encoding="utf-8"?>
<!-- Generator: Adobe Illustrator 19.1.0, SVG Export Plug-In . SVG Version: 6.00 Build 0)  -->
<svg version="1.1" id="Layer_1" xmlns="http://www.w3.org/2000/svg" xmlns:xlink="http://www.w3.org/1999/xlink" x="0px" y="0px"
	 viewBox="-261.8 264.7 41.5 69.8" style="enable-background:new -261.8 264.7 41.5 69.8;" xml:space="preserve">
<style type="text/css">
	.st0{fill:#CE3E8A;}
</style>
<path class="st0" d="M-241,265.9c-11.1,0-20,9-20,20c0,9.8,15.9,39.5,19.4,46c0.3,0.5,1.1,0.5,1.4,0c3.5-6.4,19.4-36.1,19.4-46
	C-221,274.8-230,265.9-241,265.9z M-239.5,294.7c-6.1,1-11.3-4.2-10.3-10.3c0.6-3.7,3.6-6.7,7.3-7.3c6.1-1,11.3,4.2,10.3,10.3
	C-232.9,291.1-235.8,294.1-239.5,294.7z"/>
</svg>
